# xmcd
#
# Track frame offsets:
#	150
#	10970
#	19567
#	31997
#	43812
#	52642
#	62672
#	79525
#	90492
#	102780
#	113855
#	126995
#	136562
#	147435
#	159572
#	167857
#	182884
#	193757
#	205657
#	218055
#
# Disc length: 3126 seconds
#
# Revision: 0
# Processed by: cddbd v1.5.1PL0 Copyright (c) Steve Scherf et al.
# Submitted via: dBpowerAMP V4.0
#
DISCID=070c3414
DTITLE=Dermot O'Brien - 20 Greatest Hits
DYEAR=1900
DGENRE=Easy Listening
TTITLE0=Whistling Rufus
TTITLE1=Laughing Accordion
TTITLE2=Teddy Bear's Picnic
TTITLE3=Medley: 79th Farewell To Gibraltar/ The Barren Rocks Of Aden
TTITLE4=Marching Through Georgia/ Battle Hymn of the Republic
TTITLE5=Orange Blossom Special
TTITLE6=Peanut Vendor
TTITLE7=Alpine Slopes
TTITLE8=Cuckoo Waltz
TTITLE9=Beer Barrel Polka
TTITLE10=Medley: Cock O' The North/ Atholl Highlanders/ Atholl Jig
TTITLE11=Bluebell Polka
TTITLE12=Medley: Strathpeys/ Brochanlorn/ Laird Of Drumbar
TTITLE13=Wheels
TTITLE14=Alpine Ski Run
TTITLE15=Medley: Nora Malone/Eileen O'Grady/ Little Nelly Kelly
TTITLE16=Medley: Baby Face/ Red Red Robin/ Anything Goes/ My Kind Of Town
TTITLE17=Medely: Do You Ken John Peel?/ There's a Tavern in the Town
TTITLE18=Medley: In the Good Old Summertime/ Tiger Rag
TTITLE19=Medley: Yellow Bird/ Never On A Sunday
EXTD=
EXTT0=
EXTT1=
EXTT2=
EXTT3=
EXTT4=
EXTT5=
EXTT6=
EXTT7=
EXTT8=
EXTT9=
EXTT10=
EXTT11=
EXTT12=
EXTT13=
EXTT14=
EXTT15=
EXTT16=
EXTT17=
EXTT18=
EXTT19=
PLAYORDER=
